<svg width="667" height="348" viewBox="0 0 667 348" fill="none" xmlns="http://www.w3.org/2000/svg">
<path d="M97.4965 296.947C227.489 364.915 438.253 364.915 568.246 296.947C698.239 228.979 698.239 118.934 568.246 51.0293C438.253 -16.8755 227.489 -16.9387 97.4965 51.0293C-32.4962 118.997 -32.4962 229.026 97.4965 296.947Z" fill="#F5F5F5"/>
<path d="M169.306 208.857L200.635 190.775L169.306 172.692L137.693 190.775L169.306 208.857Z" stroke="#EBEBEB" stroke-width="1.08419" stroke-linecap="round" stroke-linejoin="round"/>
<path d="M144.98 190.79L169.323 120.436V204.842L144.98 190.79Z" fill="#E0E0E0"/>
<path d="M169.322 204.842L193.648 190.79L169.322 120.436V204.842Z" fill="#E6E6E6"/>
<path d="M131.023 230.923L162.352 212.84L131.023 194.758L99.4102 212.84L131.023 230.923Z" stroke="#EBEBEB" stroke-width="1.08419" stroke-linecap="round" stroke-linejoin="round"/>
<path d="M106.697 212.856L131.023 108.375V226.908L106.697 212.856Z" fill="#E0E0E0"/>
<path d="M131.023 226.908L155.35 212.856L131.023 108.375V226.908Z" fill="#E6E6E6"/>
<path d="M92.7401 252.989L124.069 234.906L92.7401 216.824L61.1113 234.906L92.7401 252.989Z" stroke="#EBEBEB" stroke-width="1.08419" stroke-linecap="round" stroke-linejoin="round"/>
<path d="M68.4141 234.922L92.7403 172.692V248.974L68.4141 234.922Z" fill="#E0E0E0"/>
<path d="M92.7402 248.974L117.066 234.922L92.7402 172.692V248.974Z" fill="#E6E6E6"/>
<path d="M54.4569 275.055L85.7854 256.972L54.4569 238.89L22.8281 256.972L54.4569 275.055Z" stroke="#EBEBEB" stroke-width="1.08419" stroke-linecap="round" stroke-linejoin="round"/>
<path d="M30.1152 256.988L54.4573 151.337V271.04L30.1152 256.988Z" fill="#E0E0E0"/>
<path d="M54.457 271.04L78.7832 256.988L54.457 151.337V271.04Z" fill="#E6E6E6"/>
<path d="M471.986 184.815L639.061 281.267" stroke="#EBEBEB" stroke-width="1.08419" stroke-miterlimit="10" stroke-linecap="round"/>
<path d="M639.061 271.04C638.858 258.932 638.009 246.844 636.516 234.827C634.935 221.771 631.774 199.737 619.208 192.466C606.641 185.195 601.899 198.346 600.082 204.811C597.711 213.204 585.397 207.893 583.69 194.062C581.983 180.232 580.861 136.163 566.098 127.675C551.334 119.187 546.577 139.656 544.901 145.378C541.598 156.617 531.908 153.519 528.747 146.074C525.586 138.629 516.955 136.811 513.699 147.291C510.443 157.771 508.436 169.799 497.893 163.619C488.63 158.197 492.882 148.318 483.856 143.624C476.712 139.925 473.393 157.565 473.393 175.411L639.061 271.04Z" fill="#E0E0E0"/>
<path d="M626.921 179.062C626.921 180.99 625.183 181.544 623.064 180.327L610.419 172.992C609.38 172.403 608.491 171.581 607.822 170.591C607.153 169.602 606.722 168.47 606.562 167.286C606.562 165.374 608.301 164.805 610.419 166.037L623.064 173.372C624.104 173.957 624.993 174.776 625.662 175.763C626.331 176.751 626.762 177.88 626.921 179.062Z" fill="#E6E6E6"/>
<path d="M575.013 117.053C575.013 118.981 573.29 119.535 571.156 118.318L558.511 110.983C557.469 110.397 556.578 109.576 555.909 108.586C555.239 107.595 554.81 106.462 554.654 105.277C554.654 103.365 556.377 102.796 558.511 104.028L571.156 111.363C572.197 111.946 573.087 112.765 573.757 113.752C574.426 114.74 574.856 115.87 575.013 117.053Z" fill="#E6E6E6"/>
<path d="M533.9 128.465C533.9 130.394 532.177 130.947 530.059 129.73L517.413 122.396C516.372 121.809 515.481 120.988 514.811 119.998C514.142 119.008 513.712 117.875 513.557 116.69C513.557 114.777 515.28 114.208 517.413 115.441L530.059 122.775C531.096 123.362 531.982 124.181 532.649 125.168C533.315 126.156 533.743 127.284 533.9 128.465Z" fill="#E6E6E6"/>
<path d="M494.921 132.243C494.921 134.171 493.198 134.725 491.064 133.492L478.419 126.173C477.382 125.583 476.495 124.761 475.829 123.771C475.162 122.781 474.734 121.65 474.578 120.467C474.578 118.555 476.301 117.986 478.419 119.219L491.064 126.537C492.105 127.125 492.994 127.947 493.663 128.937C494.333 129.927 494.763 131.059 494.921 132.243Z" fill="#E6E6E6"/>
<path d="M465.031 170.574V66.077" stroke="#EBEBEB" stroke-width="1.08419" stroke-miterlimit="10" stroke-linecap="round"/>
<path d="M60.0521 208.069C60.0521 208.069 62.6444 184.865 55.4524 162.768C48.6872 141.872 35.0937 130.791 26.8585 127.472C11.2891 121.26 9.89809 138.41 21.5633 150.281C30.1146 159.006 50.6947 176.994 54.2353 207.5L60.0521 208.069Z" fill="#407BFF"/>
<path opacity="0.7" d="M60.0521 208.069C60.0521 208.069 62.6444 184.865 55.4524 162.768C48.6872 141.872 35.0937 130.791 26.8585 127.472C11.2891 121.26 9.89809 138.41 21.5633 150.281C30.1146 159.006 50.6947 176.994 54.2353 207.5L60.0521 208.069Z" fill="white"/>
<path d="M22.6523 132.261C32.0572 138.584 57.3318 156.841 58.2486 207.896" stroke="#FAFAFA" stroke-width="1.08419" stroke-miterlimit="10" stroke-linecap="round"/>
<path d="M53.4287 223.923C48.5919 200.53 38.7128 192.042 21.057 183C13.5015 179.143 4.64981 174.844 1.45689 169.928C-1.73602 165.013 -0.123754 158.405 10.7511 158.548C30.6199 158.816 53.2548 182.763 56.2739 209.002L53.4287 223.923Z" fill="#407BFF"/>
<path opacity="0.8" d="M53.4287 223.923C48.5919 200.53 38.7128 192.042 21.057 183C13.5015 179.143 4.64981 174.844 1.45689 169.928C-1.73602 165.013 -0.123754 158.405 10.7511 158.548C30.6199 158.816 53.2548 182.763 56.2739 209.002L53.4287 223.923Z" fill="white"/>
<path d="M9.07617 163.637C24.0765 165.676 47.7705 183.158 55.2944 214.218" stroke="#FAFAFA" stroke-width="1.08419" stroke-miterlimit="10" stroke-linecap="round"/>
<path d="M607.589 197.116C613.675 185.419 618.401 152.604 610.577 137.43C602.752 122.256 591.119 123.473 589.317 128.389C587.736 132.925 591.64 141.034 596.698 150.692C601.757 160.35 606.024 181.04 601.235 190.682L607.589 197.116Z" fill="#407BFF"/>
<path opacity="0.7" d="M607.589 197.116C613.675 185.419 618.401 152.604 610.577 137.43C602.752 122.256 591.119 123.473 589.317 128.389C587.736 132.925 591.64 141.034 596.698 150.692C601.757 160.35 606.024 181.04 601.235 190.682L607.589 197.116Z" fill="white"/>
<path d="M596.998 129.179C601.977 133.178 616.235 157.631 606.261 191.188" stroke="#FAFAFA" stroke-width="1.08419" stroke-miterlimit="10" stroke-linecap="round"/>
<path d="M605.66 209.508C601.993 202.174 593.963 190.034 599.432 181.704C604.901 173.374 610.623 180.74 615.017 175.302C619.412 169.865 614.385 161.077 618.179 156.335C625.513 147.009 630.824 157.836 636.577 156.414C640.735 155.386 645.366 146.171 657.331 147.293C669.297 148.416 668.696 157.9 663.369 162.357C658.043 166.814 651.72 171.256 655.83 177.942C659.465 183.87 661.346 194.824 648.907 199.076C637.02 203.138 642.9 208.291 641.003 214.108C639.107 219.924 627.884 225.441 615.95 220.952L605.66 209.508Z" fill="#407BFF"/>
<path opacity="0.8" d="M605.66 209.508C601.993 202.174 593.963 190.034 599.432 181.704C604.901 173.374 610.623 180.74 615.017 175.302C619.412 169.865 614.385 161.077 618.179 156.335C625.513 147.009 630.824 157.836 636.577 156.414C640.735 155.386 645.366 146.171 657.331 147.293C669.297 148.416 668.696 157.9 663.369 162.357C658.043 166.814 651.72 171.256 655.83 177.942C659.465 183.87 661.346 194.824 648.907 199.076C637.02 203.138 642.9 208.291 641.003 214.108C639.107 219.924 627.884 225.441 615.95 220.952L605.66 209.508Z" fill="white"/>
<path d="M658.977 152.668C646.016 156.145 614.972 181.372 612.348 213.033" stroke="#FAFAFA" stroke-width="1.08419" stroke-miterlimit="10" stroke-linecap="round"/>
<path d="M649.635 185.909C643.233 184.455 626.968 184.249 620.883 187.205" stroke="#FAFAFA" stroke-width="1.08419" stroke-miterlimit="10" stroke-linecap="round"/>
<path d="M624.502 159.117C624.502 159.117 629.244 168.3 628.564 176.03" stroke="#FAFAFA" stroke-width="1.08419" stroke-miterlimit="10" stroke-linecap="round"/>
<path d="M447.69 97.5912C445.571 90.2556 441.784 83.5096 436.625 77.8805C430.528 71.2316 423.397 65.6111 415.508 61.2363C406.347 56.047 396.606 51.9565 386.487 49.0494C375.34 45.8321 363.905 43.7144 352.345 42.7268C340.404 41.6361 328.389 41.6361 316.449 42.7268C304.894 43.7143 293.464 45.832 282.322 49.0494C272.197 51.9536 262.451 56.0443 253.286 61.2363C245.396 65.6493 238.271 71.3071 232.184 77.9912C227.03 83.6236 223.244 90.3685 221.12 97.7019C219.231 104.486 219.231 111.656 221.12 118.44C223.227 125.776 227.015 132.519 232.184 138.135C238.275 144.825 245.406 150.488 253.302 154.906C262.456 160.093 272.192 164.179 282.307 167.077C293.453 170.308 304.888 172.447 316.449 173.462C328.39 174.537 340.404 174.537 352.345 173.462C363.912 172.443 375.352 170.299 386.503 167.061C396.618 164.163 406.354 160.078 415.508 154.89C423.407 150.477 430.538 144.813 436.625 138.119C441.787 132.498 445.575 125.757 447.69 118.424C449.581 111.609 449.581 104.407 447.69 97.5912Z" fill="#37474F"/>
<path d="M219.697 97.6228H449.097V109.32L219.697 108.672V97.6228Z" fill="#37474F"/>
<path d="M316.449 32.2471L334.373 97.5912L282.322 38.6329C293.462 35.3941 304.892 33.2552 316.449 32.2471Z" fill="#455A64"/>
<path d="M352.345 32.2471L334.421 97.5912L316.496 32.2155C328.422 31.1382 340.421 31.1488 352.345 32.2471Z" fill="#455A64"/>
<path d="M386.488 38.6329L334.422 97.5912L352.346 32.2155C363.909 33.234 375.345 35.3834 386.488 38.6329Z" fill="#455A64"/>
<path d="M436.611 67.5588C441.767 73.1962 445.553 79.9466 447.675 87.2854L334.438 97.5912L436.611 67.5588Z" fill="#455A64"/>
<path d="M447.691 87.3011C449.564 94.0816 449.564 101.243 447.691 108.023L334.438 97.5912L447.691 87.3011Z" fill="#455A64"/>
<path d="M447.691 108.023C445.573 115.359 441.786 122.105 436.627 127.734L334.438 97.7018L447.691 108.023Z" fill="#455A64"/>
<path d="M436.627 127.734C430.538 134.423 423.407 140.081 415.509 144.489L334.406 97.5912L436.627 127.734Z" fill="#455A64"/>
<path d="M334.422 97.6702L386.504 156.676C375.353 159.895 363.912 162.012 352.347 162.999L334.406 97.6228L334.422 97.6702Z" fill="#455A64"/>
<path d="M334.405 97.686L352.346 163.062C340.405 164.152 328.39 164.152 316.449 163.062L334.405 97.686Z" fill="#455A64"/>
<path d="M334.374 97.6702L316.418 163.046C304.852 162.06 293.412 159.942 282.26 156.723L334.374 97.6702Z" fill="#455A64"/>
<path d="M334.373 97.6702L282.212 156.676C272.099 153.766 262.364 149.675 253.207 144.489L334.373 97.6702Z" fill="#455A64"/>
<path d="M334.359 97.5912L232.17 127.624C227.004 122 223.216 115.252 221.105 107.913L334.359 97.5912Z" fill="#455A64"/>
<path d="M334.358 97.5912L221.12 108.023C219.231 101.245 219.231 94.0795 221.12 87.3011L334.358 97.5912Z" fill="#455A64"/>
<path d="M334.359 97.5912L221.121 87.2379C223.248 79.9011 227.034 73.1517 232.186 67.5114L334.359 97.5912Z" fill="#455A64"/>
<path d="M253.287 50.8356L334.359 97.5912L232.186 67.5589C238.274 60.8856 245.4 55.2386 253.287 50.8356Z" fill="#455A64"/>
<path d="M415.509 50.8356L334.422 97.5912L386.488 38.6013C396.612 41.5169 406.354 45.6237 415.509 50.8356Z" fill="#455A64"/>
<path d="M415.509 50.8356C423.4 55.2344 430.526 60.8819 436.611 67.5589L334.438 97.5912L415.509 50.8356Z" fill="#455A64"/>
<path d="M334.373 97.5912L253.254 144.426C245.359 140.014 238.228 134.356 232.137 127.671L334.326 97.6386L334.373 97.5912Z" fill="#455A64"/>
<path d="M282.324 38.6329L334.374 97.5912L253.287 50.7723C262.451 45.5905 272.198 41.5155 282.324 38.6329Z" fill="#455A64"/>
<path d="M334.422 97.6702L415.509 144.489C406.353 149.675 396.617 153.766 386.504 156.676L334.422 97.6702Z" fill="#455A64"/>
<path d="M265.031 31.6464L329.443 68.8234L326.281 16.2667C302.588 17.2783 282.466 22.3364 265.031 31.6464Z" fill="#407BFF"/>
<path opacity="0.2" d="M265.031 31.6464L329.443 68.8234L326.281 16.2667C302.588 17.2783 282.466 22.3364 265.031 31.6464Z" fill="white"/>
<path d="M329.443 68.8233V89.1189L265.031 51.9262V31.6464L329.443 68.8233Z" fill="#407BFF"/>
<path opacity="0.1" d="M329.443 68.8233V89.1189L265.031 51.9262V31.6464L329.443 68.8233Z" fill="black"/>
<path d="M412.949 36.8626L339.021 70.2143V90.4941L412.949 57.1424V36.8626Z" fill="#407BFF"/>
<path opacity="0.3" d="M412.949 36.8626L339.021 70.2143V90.4941L412.949 57.1424V36.8626Z" fill="black"/>
<path d="M412.949 36.8626C393.049 23.3164 366.509 16.1719 335.75 16.077L337.726 48.9388L339.022 70.2143L412.949 36.8626Z" fill="#407BFF"/>
<path opacity="0.1" d="M412.949 36.8626C393.049 23.3164 366.509 16.1719 335.75 16.077L337.726 48.9388L339.022 70.2143L412.949 36.8626Z" fill="black"/>
<path d="M335.732 16.077V36.3568L339.02 90.4941V70.2143L335.732 16.077Z" fill="#263238"/>
<path d="M354.054 109.272L391.847 145.627C393.965 144.821 395.925 144.047 398.17 142.972C424.203 131.243 437.812 113.666 437.797 95.9315V75.8573C434.936 68.2227 427.064 68.2385 418.829 61.5208L341.646 96.2951L340.871 96.6428L354.054 109.272Z" fill="#407BFF"/>
<path opacity="0.6" d="M354.054 109.272L391.847 145.627C393.965 144.821 395.925 144.047 398.17 142.972C424.203 131.243 437.812 113.666 437.797 95.9315V75.8573C434.936 68.2227 427.064 68.2385 418.829 61.5208L341.646 96.2951L340.871 96.6428L354.054 109.272Z" fill="white"/>
<path d="M354.053 88.9924L391.847 125.347C393.965 124.541 395.925 123.767 398.169 122.676C441.748 102.997 450.473 66.9581 418.86 41.1777L341.677 75.952L340.902 76.2998L354.053 88.9924Z" fill="#407BFF"/>
<path opacity="0.8" d="M354.053 88.9924L391.847 125.347C393.965 124.541 395.925 123.767 398.169 122.676C441.748 102.997 450.473 66.9581 418.86 41.1777L341.677 75.952L340.902 76.2998L354.053 88.9924Z" fill="white"/>
<path d="M391.784 145.596V125.3L340.824 76.3472V96.627L391.784 145.596Z" fill="#407BFF"/>
<path opacity="0.6" d="M391.784 145.596V125.3L340.824 76.3472V96.627L391.784 145.596Z" fill="white"/>
<path d="M258.329 55.7988C247.47 62.643 235.41 66.9582 231.016 75.2724V95.5679C231.016 106.142 235.931 116.859 246.127 126.659C260.352 140.3 282.877 149.942 309.637 153.783C334.402 157.439 359.669 155.599 383.643 148.393V128.114L350.371 116.417L330.834 97.5912L258.329 55.7988Z" fill="#407BFF"/>
<path opacity="0.6" d="M258.329 55.7988C247.47 62.643 235.41 66.9582 231.016 75.2724V95.5679C231.016 106.142 235.931 116.859 246.127 126.659C260.352 140.3 282.877 149.942 309.637 153.783C334.402 157.439 359.669 155.599 383.643 148.393V128.114L350.371 116.417L330.834 97.5912L258.329 55.7988Z" fill="black"/>
<path d="M258.328 35.519C227.126 55.1507 222.099 83.2863 246.125 106.364C260.351 120.021 282.875 129.647 309.636 133.504C334.402 137.151 359.666 135.311 383.642 128.114L350.369 96.137L330.832 77.3747L258.328 35.519Z" fill="#407BFF"/>
<path opacity="0.3" d="M258.328 35.519C227.126 55.1507 222.099 83.2863 246.125 106.364C260.351 120.021 282.875 129.647 309.636 133.504C334.402 137.151 359.666 135.311 383.642 128.114L350.369 96.137L330.832 77.3747L258.328 35.519Z" fill="black"/>
<path d="M620.377 256.684C618.258 249.348 614.472 242.602 609.313 236.973C603.229 230.286 596.103 224.628 588.211 220.218C579.05 215.029 569.309 210.938 559.19 208.031C548.043 204.814 536.608 202.696 525.048 201.709C513.108 200.618 501.092 200.618 489.152 201.709C477.597 202.698 466.167 204.815 455.025 208.031C444.906 210.938 435.165 215.029 426.005 220.218C418.107 224.626 410.976 230.285 404.887 236.973C399.733 242.605 395.947 249.35 393.823 256.684C391.934 263.467 391.934 270.638 393.823 277.422C395.93 284.758 399.718 291.501 404.887 297.117C410.978 303.807 418.109 309.47 426.005 313.887C435.161 319.07 444.897 323.155 455.01 326.058C466.164 329.268 477.604 331.386 489.168 332.381C501.109 333.456 513.123 333.456 525.064 332.381C536.628 331.387 548.068 329.27 559.222 326.058C569.34 323.162 579.077 319.071 588.227 313.872C596.13 309.465 603.267 303.806 609.36 297.117C614.518 291.493 618.305 284.752 620.425 277.422C622.291 270.633 622.274 263.464 620.377 256.684Z" fill="#37474F"/>
<path d="M392.385 256.668H621.785V268.365L392.385 267.717V256.668Z" fill="#37474F"/>
<path d="M489.136 191.292L507.076 256.668L455.01 197.678C466.149 194.441 477.579 192.302 489.136 191.292Z" fill="#455A64"/>
<path d="M525.033 191.292L507.108 256.668L489.168 191.292C501.098 190.203 513.103 190.203 525.033 191.292Z" fill="#455A64"/>
<path d="M559.174 197.678L507.107 256.668L525.032 191.292C536.594 192.3 548.029 194.439 559.174 197.678Z" fill="#455A64"/>
<path d="M609.296 226.62C614.455 232.255 618.242 239.006 620.361 246.346L507.123 256.699L609.296 226.62Z" fill="#455A64"/>
<path d="M620.376 246.346C622.257 253.126 622.257 260.289 620.376 267.069L507.139 256.699L620.376 246.346Z" fill="#455A64"/>
<path d="M620.377 267.069C618.254 274.402 614.467 281.147 609.312 286.779L507.123 256.747L620.377 267.069Z" fill="#455A64"/>
<path d="M609.328 286.779C603.227 293.46 596.091 299.117 588.195 303.534L507.092 256.699L609.328 286.779Z" fill="#455A64"/>
<path d="M507.108 256.715L559.19 315.721C548.036 318.932 536.596 321.05 525.032 322.044L507.092 256.668L507.108 256.715Z" fill="#455A64"/>
<path d="M507.091 256.731L525.031 322.044C513.09 323.126 501.076 323.126 489.135 322.044L507.091 256.731Z" fill="#455A64"/>
<path d="M507.077 256.715L489.136 322.044C477.572 321.048 466.133 318.931 454.979 315.721L507.077 256.715Z" fill="#455A64"/>
<path d="M507.077 256.715L454.915 315.721C444.804 312.805 435.069 308.715 425.91 303.534L507.077 256.715Z" fill="#455A64"/>
<path d="M507.045 256.699L404.856 286.732C399.689 281.108 395.901 274.36 393.791 267.021L507.045 256.699Z" fill="#455A64"/>
<path d="M507.045 256.699L393.807 267.069C391.918 260.29 391.918 253.125 393.807 246.346L507.045 256.699Z" fill="#455A64"/>
<path d="M507.044 256.684L393.807 246.33C395.93 238.992 399.716 232.242 404.871 226.604L507.044 256.684Z" fill="#455A64"/>
<path d="M425.989 209.817L507.044 256.62L404.871 226.588C410.958 219.894 418.09 214.231 425.989 209.817Z" fill="#455A64"/>
<path d="M588.195 209.817L507.107 256.62L559.174 197.631C569.295 200.531 579.037 204.622 588.195 209.817Z" fill="#455A64"/>
<path d="M588.194 209.817C596.086 214.221 603.212 219.874 609.296 226.556L507.139 256.589L588.194 209.817Z" fill="#455A64"/>
<path d="M507.076 256.684L425.973 303.534C418.081 299.117 410.951 293.46 404.855 286.779L507.045 256.747L507.076 256.684Z" fill="#455A64"/>
<path d="M455.009 197.678L507.076 256.668L425.988 209.817C435.148 204.638 444.89 200.563 455.009 197.678Z" fill="#455A64"/>
<path d="M507.107 256.715L588.195 303.534C579.038 308.721 569.303 312.811 559.19 315.721L507.107 256.715Z" fill="#455A64"/>
<path d="M406.042 231.014V263.86C405.21 260.859 404.784 257.759 404.777 254.645V231.014H406.042Z" fill="#407BFF"/>
<path opacity="0.3" d="M406.042 231.014V263.86C405.21 260.859 404.784 257.759 404.777 254.645V231.014H406.042Z" fill="black"/>
<path d="M507.044 231.046L406.04 240.277C404.364 234.231 404.364 227.844 406.04 221.799L507.044 231.046Z" fill="#407BFF"/>
<path d="M507.045 231.014L406.041 221.767C407.939 215.222 411.32 209.202 415.92 204.174L507.045 231.014Z" fill="#407BFF"/>
<path d="M434.745 189.269L507.044 231.014L415.92 204.143C421.356 198.206 427.712 193.184 434.745 189.269Z" fill="#407BFF"/>
<path d="M460.637 178.394L507.077 230.998L434.746 189.269C442.917 184.634 451.608 180.984 460.637 178.394Z" fill="#407BFF"/>
<path d="M491.08 172.704L507.076 230.998L460.637 178.394C470.573 175.503 480.77 173.598 491.08 172.704Z" fill="#407BFF"/>
<path d="M523.183 172.704L507.108 230.998L491.111 172.704C501.779 171.721 512.515 171.721 523.183 172.704Z" fill="#407BFF"/>
<path d="M553.547 178.394L507.107 230.998L523.183 172.704C533.466 173.603 543.636 175.509 553.547 178.394Z" fill="#407BFF"/>
<g opacity="0.2">
<path d="M507.044 231.045L406.04 240.276C404.364 234.231 404.364 227.844 406.04 221.799L507.044 231.045Z" fill="white"/>
<path d="M507.043 231.014L406.039 221.767C407.937 215.222 411.318 209.202 415.918 204.174L507.043 231.014Z" fill="white"/>
<path d="M434.745 189.269L507.044 231.014L415.92 204.143C421.356 198.206 427.712 193.184 434.745 189.269Z" fill="white"/>
<path d="M460.635 178.394L507.075 230.998L434.744 189.269C442.915 184.634 451.606 180.984 460.635 178.394Z" fill="white"/>
<path d="M491.08 172.704L507.076 230.998L460.637 178.394C470.573 175.503 480.77 173.597 491.08 172.704Z" fill="white"/>
<path d="M523.183 172.704L507.108 230.998L491.111 172.704C501.779 171.721 512.515 171.721 523.183 172.704Z" fill="white"/>
<path d="M553.547 178.394L507.107 230.998L523.183 172.704C533.466 173.603 543.636 175.508 553.547 178.394Z" fill="white"/>
</g>
<path d="M592.731 246.789L577.572 261.015L566.049 271.905L555.064 282.243L553.594 283.618V307.217C562.622 304.63 571.312 300.985 579.485 296.358C586.526 292.41 592.888 287.356 598.326 281.389C602.925 276.378 606.296 270.366 608.174 263.828C609.011 260.828 609.442 257.728 609.454 254.613V231.03L592.731 246.789Z" fill="#407BFF"/>
<path opacity="0.3" d="M592.731 246.789L577.572 261.015L566.049 271.905L555.064 282.243L553.594 283.618V307.217C562.622 304.63 571.312 300.985 579.485 296.358C586.526 292.41 592.888 287.356 598.326 281.389C602.925 276.378 606.296 270.366 608.174 263.828C609.011 260.828 609.442 257.728 609.454 254.613V231.03L592.731 246.789Z" fill="black"/>
<path d="M598.263 204.206C602.858 209.238 606.237 215.256 608.142 221.799L507.123 231.045L598.263 204.206Z" fill="#407BFF"/>
<path d="M609.407 231.061C609.394 234.182 608.964 237.286 608.127 240.292L577.525 237.479L507.123 231.03L592.684 223.126L608.127 221.72C608.972 224.762 609.403 227.904 609.407 231.061Z" fill="#407BFF"/>
<path d="M608.127 240.292C606.245 246.828 602.875 252.839 598.279 257.853L566.002 248.369L507.123 230.982L577.525 237.431L608.127 240.292Z" fill="#407BFF"/>
<path d="M598.279 257.853C592.841 263.82 586.479 268.874 579.438 272.822L555.017 258.691L507.139 231.061L566.018 248.448L598.279 257.853Z" fill="#407BFF"/>
<path d="M579.438 189.269L507.107 231.03L553.547 178.426C562.573 181.011 571.263 184.651 579.438 189.269Z" fill="#407BFF"/>
<path d="M579.438 189.269C586.473 193.207 592.829 198.25 598.263 204.206L507.123 231.077L579.438 189.269Z" fill="#407BFF"/>
<path d="M579.438 272.822C571.265 277.444 562.574 281.083 553.547 283.665L507.139 231.061L555.017 258.691L579.438 272.822Z" fill="#407BFF"/>
<g opacity="0.2">
<path d="M598.263 204.206C602.858 209.238 606.237 215.256 608.142 221.799L507.123 231.045L598.263 204.206Z" fill="white"/>
<path d="M609.407 231.061C609.394 234.182 608.964 237.286 608.127 240.292L577.525 237.479L507.123 231.03L592.684 223.126L608.127 221.72C608.972 224.762 609.403 227.904 609.407 231.061Z" fill="white"/>
<path d="M608.127 240.292C606.245 246.828 602.875 252.839 598.279 257.853L566.002 248.369L507.123 230.982L577.525 237.431L608.127 240.292Z" fill="white"/>
<path d="M598.279 257.853C592.841 263.82 586.479 268.874 579.438 272.822L555.017 258.691L507.139 231.061L566.018 248.448L598.279 257.853Z" fill="white"/>
<path d="M579.438 189.269L507.107 231.03L553.547 178.426C562.573 181.011 571.263 184.651 579.438 189.269Z" fill="white"/>
<path d="M579.438 189.269C586.473 193.207 592.829 198.25 598.263 204.206L507.123 231.077L579.438 189.269Z" fill="white"/>
<path d="M579.438 272.822C571.265 277.444 562.574 281.083 553.547 283.665L507.139 231.061L555.017 258.691L579.438 272.822Z" fill="white"/>
</g>
<path d="M553.563 283.681V307.28L507.076 254.613V230.998L553.563 283.681Z" fill="#263238"/>
<path d="M507.076 254.613L406.041 263.891V240.276L507.076 230.998V254.613Z" fill="#407BFF"/>
<path opacity="0.1" d="M507.076 254.613L406.041 263.891V240.276L507.076 230.998V254.613Z" fill="black"/>
<path d="M275.021 256.684C272.902 249.348 269.115 242.602 263.956 236.973C257.87 230.289 250.744 224.631 242.854 220.218C233.689 215.026 223.943 210.935 213.818 208.031C202.676 204.814 191.246 202.696 179.692 201.709C167.751 200.618 155.736 200.618 143.795 201.709C132.235 202.698 120.8 204.815 109.653 208.031C99.523 210.936 89.7713 215.027 80.6006 220.218C72.7087 224.628 65.5827 230.286 59.4989 236.973C54.3401 242.602 50.5532 249.348 48.4344 256.684C46.5609 263.469 46.5609 270.636 48.4344 277.422C50.5496 284.754 54.337 291.496 59.4989 297.117C65.5815 303.809 72.7076 309.473 80.6006 313.887C89.7545 319.075 99.4907 323.161 109.606 326.058C120.759 329.27 132.199 331.387 143.763 332.381C155.705 333.456 167.719 333.456 179.66 332.381C191.224 331.387 202.664 329.27 213.818 326.058C223.936 323.162 233.673 319.071 242.823 313.872C250.727 309.466 257.864 303.808 263.956 297.117C269.118 291.496 272.905 284.754 275.021 277.422C276.894 270.636 276.894 263.469 275.021 256.684Z" fill="#37474F"/>
<path d="M47.0117 256.668H276.412V268.365L47.0117 267.717V256.668Z" fill="#37474F"/>
<path d="M143.826 191.292L161.75 256.668L109.684 197.678C120.829 194.441 132.264 192.302 143.826 191.292Z" fill="#455A64"/>
<path d="M179.66 191.292L161.735 256.668L143.826 191.292C155.746 190.205 167.74 190.205 179.66 191.292Z" fill="#455A64"/>
<path d="M213.785 197.678L161.734 256.668L179.659 191.292C191.216 192.3 202.646 194.439 213.785 197.678Z" fill="#455A64"/>
<path d="M263.957 226.62C269.116 232.255 272.902 239.006 275.021 246.346L161.768 256.699L263.957 226.62Z" fill="#455A64"/>
<path d="M275.021 246.346C276.894 253.127 276.894 260.288 275.021 267.069L161.768 256.699L275.021 246.346Z" fill="#455A64"/>
<path d="M275.021 267.069C272.903 274.404 269.116 281.151 263.957 286.779L161.768 256.747L275.021 267.069Z" fill="#455A64"/>
<path d="M263.955 286.779C257.859 293.46 250.729 299.117 242.838 303.534L161.719 256.699L263.955 286.779Z" fill="#455A64"/>
<path d="M161.735 256.715L213.817 315.721C202.663 318.932 191.224 321.05 179.659 322.044L161.703 256.668L161.735 256.715Z" fill="#455A64"/>
<path d="M161.703 256.731L179.66 322.044C167.739 323.123 155.746 323.123 143.826 322.044L161.703 256.731Z" fill="#455A64"/>
<path d="M161.687 256.715L143.826 322.044C132.262 321.05 120.822 318.932 109.668 315.721L161.687 256.715Z" fill="#455A64"/>
<path d="M161.687 256.715L109.526 315.721C99.4397 312.805 89.7312 308.715 80.5996 303.534L161.687 256.715Z" fill="#455A64"/>
<path d="M161.672 256.699L59.4825 286.732C54.3232 281.103 50.5363 274.357 48.418 267.021L161.672 256.699Z" fill="#455A64"/>
<path d="M161.672 256.699L48.4183 267.069C46.5455 260.288 46.5455 253.127 48.4183 246.346L161.672 256.699Z" fill="#455A64"/>
<path d="M161.672 256.684L48.418 246.33C50.5367 238.99 54.3234 232.239 59.4825 226.604L161.672 256.684Z" fill="#455A64"/>
<path d="M80.5997 209.817L161.671 256.62L59.498 226.588C65.5795 219.894 72.7058 214.231 80.5997 209.817Z" fill="#455A64"/>
<path d="M242.822 209.817L161.734 256.62L213.785 197.631C223.913 200.528 233.66 204.619 242.822 209.817Z" fill="#455A64"/>
<path d="M242.823 209.817C250.728 214.241 257.865 219.916 263.956 226.62L161.783 256.652L242.823 209.817Z" fill="#455A64"/>
<path d="M161.687 256.684L80.5999 303.534C72.7055 299.121 65.5748 293.463 59.4824 286.779L161.671 256.747L161.687 256.684Z" fill="#455A64"/>
<path d="M109.62 197.678L161.687 256.668L80.5996 209.817C89.7595 204.638 99.501 200.563 109.62 197.678Z" fill="#455A64"/>
<path d="M161.734 256.715L242.822 303.534C233.665 308.721 223.93 312.811 213.817 315.721L161.734 256.715Z" fill="#455A64"/>
<path d="M192.211 216.14L205.283 201.313C205.283 183.926 184.039 183.5 174.65 182.662C165.261 181.824 149.154 176.434 149.154 196.224L153.643 212.599C166.605 211.767 179.618 212.961 192.211 216.14Z" fill="#407BFF"/>
<path opacity="0.6" d="M192.211 216.14L205.283 201.313C205.283 183.926 184.039 183.5 174.65 182.662C165.261 181.824 149.154 176.434 149.154 196.224L153.643 212.599C166.605 211.767 179.618 212.961 192.211 216.14Z" fill="white"/>
<path d="M192.211 192.857L205.283 178.046C186.979 173.283 168.016 171.563 149.154 172.957L153.643 189.269C166.608 188.452 179.62 189.662 192.211 192.857Z" fill="#407BFF"/>
<path opacity="0.8" d="M192.211 192.857L205.283 178.046C186.979 173.283 168.016 171.563 149.154 172.957L153.643 189.269C166.608 188.452 179.62 189.662 192.211 192.857Z" fill="white"/>
<path d="M153.643 189.332V212.631L149.154 196.255V172.957L153.643 189.332Z" fill="#407BFF"/>
<path d="M205.283 178.046L192.211 192.857V216.172L205.283 201.345V178.046Z" fill="#407BFF"/>
<g opacity="0.6">
<path d="M153.643 189.332V212.631L149.154 196.255V172.957L153.643 189.332Z" fill="white"/>
<path d="M205.283 178.046L192.211 192.857V216.171L205.283 201.345V178.046Z" fill="white"/>
</g>
<path d="M198.596 194.738V218.037C204.05 219.798 209.313 222.101 214.307 224.913C218.665 227.387 222.669 230.439 226.21 233.986L251.848 226.446C246.75 221.243 240.945 216.783 234.603 213.2C227.601 209.185 220.108 192.904 198.596 194.738Z" fill="#407BFF"/>
<path opacity="0.6" d="M198.596 194.738V218.037C204.05 219.798 209.313 222.101 214.307 224.913C218.665 227.387 222.669 230.439 226.21 233.986L251.848 226.446C246.75 221.243 240.945 216.783 234.603 213.2C227.601 209.185 220.108 192.904 198.596 194.738Z" fill="black"/>
<path d="M211.668 179.943L198.596 194.738C204.055 196.485 209.32 198.789 214.307 201.614C218.665 204.088 222.669 207.14 226.21 210.687L251.848 203.147C246.759 197.934 240.952 193.474 234.603 189.901C227.336 185.771 219.647 182.433 211.668 179.943Z" fill="#407BFF"/>
<path opacity="0.3" d="M211.668 179.943L198.596 194.738C204.055 196.485 209.32 198.789 214.307 201.614C218.665 204.088 222.669 207.14 226.21 210.687L251.848 203.147C246.759 197.934 240.952 193.474 234.603 189.901C227.336 185.771 219.647 182.433 211.668 179.943Z" fill="black"/>
<path d="M226.211 210.687L251.849 203.131V226.446L226.211 233.986V210.687Z" fill="#407BFF"/>
<path opacity="0.6" d="M226.211 210.687L251.849 203.131V226.446L226.211 233.986V210.687Z" fill="black"/>
<path d="M264.715 231.362H256.053C255.737 230.951 255.468 230.54 255.152 230.129L229.482 214.322V237.637C234.951 244.671 237.022 252.353 235.6 259.892L263.956 262.532C264.436 260.181 264.675 257.787 264.668 255.388L264.715 231.362Z" fill="#407BFF"/>
<path opacity="0.6" d="M264.715 231.362H256.053C255.737 230.951 255.468 230.54 255.152 230.129L229.482 214.322V237.637C234.951 244.671 237.022 252.353 235.6 259.892L263.956 262.532C264.436 260.181 264.675 257.787 264.668 255.388L264.715 231.362Z" fill="black"/>
<path d="M235.584 236.688L263.957 239.233C266.264 228.279 263.34 217.009 255.137 206.83L229.467 214.37C234.936 221.404 237.086 229.101 235.584 236.688Z" fill="#407BFF"/>
<path opacity="0.3" d="M235.584 236.688L263.957 239.233C266.264 228.279 263.34 217.009 255.137 206.83L229.467 214.37C234.936 221.404 237.086 229.101 235.584 236.688Z" fill="black"/>
<path d="M263.957 239.233V262.548L235.584 259.94V236.641L263.957 239.233Z" fill="#407BFF"/>
<path opacity="0.6" d="M263.957 239.233V262.548L235.584 259.94V236.641L263.957 239.233Z" fill="black"/>
<path d="M146.56 213.295V189.98C130.754 182.693 101.322 190.091 91.459 211.793L111.755 223.522C122.656 218.07 134.443 214.606 146.56 213.295Z" fill="#407BFF"/>
<path opacity="0.3" d="M146.56 213.295V189.98C130.754 182.693 101.322 190.091 91.459 211.793L111.755 223.522C122.656 218.07 134.443 214.606 146.56 213.295Z" fill="black"/>
<path d="M146.56 189.98L142.055 173.557C122.945 175.707 105.448 180.971 91.4746 188.494L111.77 200.207C122.667 194.757 134.448 191.294 146.56 189.98Z" fill="#407BFF"/>
<path opacity="0.1" d="M146.56 189.98L142.055 173.557C122.945 175.707 105.448 180.971 91.4746 188.494L111.77 200.207C122.667 194.757 134.448 191.294 146.56 189.98Z" fill="black"/>
<path d="M111.755 200.207V223.522L91.459 211.793V188.494L111.755 200.207Z" fill="#263238"/>
<path d="M90.5277 203.147L86.3548 214.702C72.7138 223.142 64.0993 233.306 60.5586 243.944L89.0103 246.536C91.6184 239.249 97.5616 232.31 106.761 226.462V203.147H90.5277Z" fill="#407BFF"/>
<path opacity="0.3" d="M90.5277 203.147L86.3548 214.702C72.7138 223.142 64.0993 233.306 60.5586 243.944L89.0103 246.536C91.6184 239.249 97.5616 232.31 106.761 226.462V203.147H90.5277Z" fill="black"/>
<path d="M106.698 203.147L86.3548 191.403C72.7138 199.828 64.0993 210.007 60.5586 220.629L89.0103 223.237C91.5552 215.95 97.4984 208.995 106.698 203.147Z" fill="#407BFF"/>
<path opacity="0.1" d="M106.698 203.147L86.3548 191.403C72.7138 199.828 64.0993 210.007 60.5586 220.629L89.0103 223.237C91.5552 215.95 97.4984 208.995 106.698 203.147Z" fill="black"/>
<path d="M60.5586 220.629V243.944L88.9471 246.536V223.237L60.5586 220.629Z" fill="#263238"/>
<path d="M87.8246 250.63V227.315L79.3839 226.556L58.709 231.946V255.229C58.8414 264.481 62.1952 273.396 68.1929 280.441L93.8626 272.901C88.5042 265.867 86.4178 258.169 87.8246 250.63Z" fill="#407BFF"/>
<path opacity="0.3" d="M87.8246 250.63V227.315L79.3839 226.556L58.709 231.946V255.229C58.8414 264.481 62.1952 273.396 68.1929 280.441L93.8626 272.901C88.5042 265.867 86.4178 258.169 87.8246 250.63Z" fill="black"/>
<path d="M68.2871 257.142L93.9569 249.587V272.901L68.2871 280.441V257.142Z" fill="#263238"/>
<path d="M87.8396 227.315L59.3879 224.723C57.0802 235.693 60.0044 246.947 68.208 257.142L93.8777 249.587C88.5035 242.553 86.4171 234.855 87.8396 227.315Z" fill="#407BFF"/>
<path opacity="0.1" d="M87.8396 227.315L59.3879 224.723C57.0802 235.693 60.0044 246.947 68.208 257.142L93.8777 249.587C88.5035 242.553 86.4171 234.855 87.8396 227.315Z" fill="black"/>
<path d="M118.205 280.409C106.176 273.47 100.17 264.381 100.17 255.293V231.946H223.255V255.245C223.255 264.35 217.249 273.439 205.22 280.378C181.194 294.287 142.247 294.287 118.205 280.409Z" fill="#37474F"/>
<path d="M161.72 267.511C195.705 267.511 223.255 251.602 223.255 231.978C223.255 212.354 195.705 196.445 161.72 196.445C127.736 196.445 100.186 212.354 100.186 231.978C100.186 251.602 127.736 267.511 161.72 267.511Z" fill="#455A64"/>
<path d="M111.755 287.08V284.108L71.5586 260.825V284.108C76.658 289.316 82.4693 293.776 88.8193 297.354C96.0863 301.484 103.775 304.822 111.755 307.312L124.811 292.517C120.321 291.056 115.955 289.237 111.755 287.08Z" fill="#407BFF"/>
<path opacity="0.3" d="M111.755 287.08V284.108L71.5586 260.825V284.108C76.658 289.316 82.4693 293.776 88.8193 297.354C96.0863 301.484 103.775 304.822 111.755 307.312L124.811 292.517C120.321 291.056 115.955 289.237 111.755 287.08Z" fill="black"/>
<path d="M109.052 262.342C104.689 259.874 100.68 256.828 97.1342 253.285L71.4961 260.825C76.5996 266.028 82.4102 270.487 88.7568 274.071C96.027 278.194 103.715 281.532 111.692 284.029L124.748 269.218C119.294 267.471 114.034 265.167 109.052 262.342Z" fill="#407BFF"/>
<path opacity="0.1" d="M109.052 262.342C104.689 259.874 100.68 256.828 97.1342 253.285L71.4961 260.825C76.5996 266.028 82.4102 270.487 88.7568 274.071C96.027 278.194 103.715 281.532 111.692 284.029L124.748 269.218C119.294 267.471 114.034 265.167 109.052 262.342Z" fill="black"/>
<path d="M111.756 307.328V284.029L124.812 269.218V292.533L111.756 307.328Z" fill="#263238"/>
<path d="M118.141 285.91V309.225C136.444 313.988 155.407 315.708 174.27 314.314V291.015L118.141 285.91Z" fill="#407BFF"/>
<path opacity="0.1" d="M118.141 285.91V309.225C136.444 313.988 155.407 315.708 174.27 314.314V291.015L118.141 285.91Z" fill="black"/>
<path d="M131.181 271.099L118.109 285.91C136.414 290.671 155.375 292.396 174.238 291.015L169.781 274.624C156.809 275.465 143.786 274.276 131.181 271.099Z" fill="#407BFF"/>
<path opacity="0.2" d="M131.181 271.099L118.109 285.91C136.414 290.671 155.375 292.396 174.238 291.015L169.781 274.624C156.809 275.465 143.786 274.276 131.181 271.099Z" fill="white"/>
<path d="M216.727 284.108L237.085 295.868C250.726 287.443 259.341 277.264 262.882 266.626V243.327L234.43 264.034C231.869 271.32 225.926 278.275 216.727 284.108Z" fill="#407BFF"/>
<path opacity="0.1" d="M216.727 284.108L237.085 295.868C250.726 287.443 259.341 277.264 262.882 266.626V243.327L234.43 264.034C231.869 271.32 225.926 278.275 216.727 284.108Z" fill="black"/>
<path d="M216.727 260.809L237.085 272.569C250.726 264.129 259.341 253.965 262.882 243.327L234.43 240.735C231.869 248.022 225.926 254.961 216.727 260.809Z" fill="#407BFF"/>
<path opacity="0.2" d="M216.727 260.809L237.085 272.569C250.726 264.129 259.341 253.965 262.882 243.327L234.43 240.735C231.869 248.022 225.926 254.961 216.727 260.809Z" fill="white"/>
<path d="M237.07 272.569V295.868L216.727 284.124V260.809L237.07 272.569Z" fill="#407BFF"/>
<path opacity="0.3" d="M237.07 272.569V295.868L216.727 284.124V260.809L237.07 272.569Z" fill="black"/>
<path d="M181.366 290.431V296.753C179.865 296.99 178.379 297.196 176.861 297.37L181.366 313.777C199.781 311.722 217.389 306.743 231.947 298.871V275.493L181.366 290.431Z" fill="#407BFF"/>
<path opacity="0.1" d="M181.366 290.431V296.753C179.865 296.99 178.379 297.196 176.861 297.37L181.366 313.777C199.781 311.722 217.389 306.743 231.947 298.871V275.493L181.366 290.431Z" fill="black"/>
<path d="M176.861 273.992L181.366 290.431C199.781 288.376 217.389 283.412 231.947 275.541L211.604 263.781C200.73 269.243 188.961 272.702 176.861 273.992Z" fill="#407BFF"/>
<path opacity="0.2" d="M176.861 273.992L181.366 290.431C199.781 288.376 217.389 283.412 231.947 275.541L211.604 263.781C200.73 269.243 188.961 272.702 176.861 273.992Z" fill="white"/>
<path d="M181.366 290.383V313.682L176.861 297.306V273.992L181.366 290.383Z" fill="#407BFF"/>
<path opacity="0.3" d="M181.366 290.383V313.682L176.861 297.306V273.992L181.366 290.383Z" fill="black"/>
<path d="M575.835 241.915C575.779 240.887 575.482 239.887 574.969 238.994C574.455 238.102 573.739 237.343 572.879 236.778L530.075 212.072C528.494 211.124 527.119 211.898 527.119 213.795V255.161C527.173 256.189 527.469 257.19 527.982 258.083C528.496 258.976 529.213 259.734 530.075 260.298L548 270.635L553.658 293.539C553.639 293.958 553.788 294.368 554.071 294.677C554.354 294.987 554.749 295.172 555.168 295.191C555.587 295.209 555.997 295.061 556.306 294.778C556.616 294.495 556.801 294.1 556.82 293.681L562.004 278.712L572.958 285.035C574.539 285.983 575.914 285.209 575.914 283.328L575.835 241.915Z" fill="#407BFF"/>
<path opacity="0.5" d="M575.835 241.915C575.779 240.887 575.482 239.887 574.969 238.994C574.455 238.102 573.739 237.343 572.879 236.778L530.075 212.072C528.494 211.124 527.119 211.898 527.119 213.795V255.161C527.173 256.189 527.469 257.19 527.982 258.083C528.496 258.976 529.213 259.734 530.075 260.298L548 270.635L553.658 293.539C553.639 293.958 553.788 294.368 554.071 294.677C554.354 294.987 554.749 295.172 555.168 295.191C555.587 295.209 555.997 295.061 556.306 294.778C556.616 294.495 556.801 294.1 556.82 293.681L562.004 278.712L572.958 285.035C574.539 285.983 575.914 285.209 575.914 283.328L575.835 241.915Z" fill="white"/>
<path d="M543.336 230.913C544.21 231.41 545.017 232.016 545.739 232.715C546.384 233.343 546.961 234.037 547.462 234.786C547.896 235.448 548.251 236.159 548.521 236.904C548.743 237.537 548.887 238.196 548.947 238.864C548.947 239.544 549.026 240.255 549.026 240.998C549.026 241.741 549.026 242.421 548.947 243.053C548.909 243.562 548.763 244.058 548.521 244.507C548.284 244.922 547.909 245.241 547.462 245.408C546.898 245.563 546.303 245.563 545.739 245.408C544.888 245.211 544.076 244.874 543.336 244.412C542.458 243.921 541.646 243.32 540.918 242.626C540.27 242.016 539.697 241.332 539.211 240.587C538.384 239.365 537.869 237.96 537.709 236.493C537.709 235.813 537.709 235.102 537.709 234.359C537.709 233.616 537.709 232.937 537.709 232.32C537.758 231.806 537.908 231.306 538.152 230.85C538.38 230.429 538.758 230.107 539.211 229.949C539.763 229.775 540.351 229.748 540.918 229.87C541.779 230.073 542.598 230.426 543.336 230.913ZM558.447 240.54C558.609 240.421 558.8 240.35 559 240.334C559.288 240.353 559.565 240.445 559.806 240.603L562.067 241.915C562.326 242.062 562.552 242.261 562.731 242.5C562.879 242.702 562.961 242.945 562.968 243.195C562.974 243.248 562.974 243.301 562.968 243.353C562.94 243.412 562.903 243.465 562.857 243.511L544.237 257.263C544.075 257.383 543.884 257.459 543.684 257.484C543.394 257.465 543.115 257.367 542.878 257.2L540.617 255.903C540.355 255.754 540.128 255.549 539.953 255.303C539.801 255.108 539.713 254.87 539.701 254.623C539.688 254.566 539.688 254.507 539.701 254.449C539.723 254.388 539.761 254.333 539.811 254.291L558.447 240.54ZM545.328 240.54C545.35 240.308 545.35 240.075 545.328 239.844V237.805C545.349 237.558 545.349 237.309 545.328 237.062C545.276 236.507 545.109 235.968 544.838 235.481C544.473 234.89 543.954 234.408 543.336 234.091C542.609 233.664 542.103 233.553 541.755 233.743C541.606 233.863 541.485 234.014 541.4 234.186C541.315 234.358 541.269 234.547 541.265 234.739C541.265 234.881 541.265 235.102 541.265 235.434C541.265 235.766 541.265 236.082 541.265 236.43C541.265 236.778 541.265 237.125 541.265 237.457C541.265 237.789 541.265 238.042 541.265 238.216C541.324 238.77 541.491 239.307 541.755 239.797C542.143 240.398 542.69 240.88 543.336 241.188C544.063 241.614 544.569 241.725 544.838 241.535C544.981 241.421 545.097 241.277 545.179 241.113C545.261 240.95 545.306 240.77 545.312 240.587L545.328 240.54ZM559.648 253.517C560.527 254.014 561.339 254.619 562.067 255.319C562.708 255.946 563.28 256.64 563.774 257.389C564.22 258.045 564.576 258.757 564.833 259.507C565.053 260.142 565.201 260.8 565.276 261.467C565.276 262.147 565.276 262.858 565.276 263.601C565.276 264.344 565.276 265.024 565.276 265.656C565.227 266.166 565.076 266.66 564.833 267.11C564.725 267.323 564.576 267.512 564.394 267.667C564.212 267.822 564.001 267.939 563.774 268.011C563.217 268.175 562.624 268.175 562.067 268.011C561.212 267.814 560.394 267.478 559.648 267.015C558.775 266.524 557.968 265.924 557.246 265.229C556.598 264.616 556.02 263.932 555.523 263.19C555.086 262.53 554.73 261.818 554.464 261.072C554.243 260.439 554.1 259.78 554.037 259.112C554.037 258.417 554.037 257.705 554.037 256.963C554.037 256.22 554.037 255.54 554.037 254.923C554.073 254.409 554.219 253.908 554.464 253.453C554.696 253.035 555.072 252.715 555.523 252.553C556.089 252.413 556.68 252.413 557.246 252.553C558.1 252.746 558.913 253.088 559.648 253.564V253.517ZM561.656 263.19C561.669 262.959 561.669 262.726 561.656 262.495V260.503C561.656 260.187 561.656 259.934 561.656 259.776C561.59 259.224 561.424 258.688 561.166 258.195C560.773 257.598 560.227 257.118 559.585 256.804C558.858 256.378 558.352 256.267 558.084 256.457C557.934 256.577 557.813 256.728 557.728 256.9C557.643 257.072 557.597 257.261 557.594 257.453C557.577 257.684 557.577 257.916 557.594 258.148C557.594 258.464 557.594 258.796 557.594 259.144C557.594 259.492 557.594 259.839 557.594 260.187C557.579 260.434 557.579 260.683 557.594 260.93C557.643 261.486 557.81 262.025 558.084 262.511C558.443 263.106 558.964 263.588 559.585 263.902C560.312 264.328 560.818 264.439 561.166 264.249C561.314 264.125 561.434 263.97 561.519 263.796C561.603 263.622 561.65 263.431 561.656 263.238V263.19Z" fill="#FAFAFA"/>
<path d="M390.661 83.3122C390.604 82.2846 390.306 81.2848 389.793 80.3927C389.28 79.5006 388.565 78.7411 387.705 78.1751L344.901 53.4853C343.32 52.5369 341.945 53.2956 341.945 55.1924V96.5581C342 97.5884 342.296 98.5914 342.81 99.4864C343.323 100.381 344.04 101.143 344.901 101.711L362.826 112.048L368.484 134.905C368.546 135.259 368.727 135.581 368.997 135.819C369.267 136.056 369.61 136.195 369.969 136.211C370.328 136.228 370.682 136.121 370.972 135.91C371.263 135.698 371.472 135.394 371.567 135.047L376.751 120.078L387.705 126.401C389.286 127.349 390.661 126.59 390.661 124.694V83.3122Z" fill="#407BFF"/>
<path opacity="0.5" d="M390.661 83.3122C390.604 82.2846 390.306 81.2848 389.793 80.3927C389.28 79.5006 388.565 78.7411 387.705 78.1751L344.901 53.4853C343.32 52.5369 341.945 53.2956 341.945 55.1924V96.5581C342 97.5884 342.296 98.5914 342.81 99.4864C343.323 100.381 344.04 101.143 344.901 101.711L362.826 112.048L368.484 134.905C368.546 135.259 368.727 135.581 368.997 135.819C369.267 136.056 369.61 136.195 369.969 136.211C370.328 136.228 370.682 136.121 370.972 135.91C371.263 135.698 371.472 135.394 371.567 135.047L376.751 120.078L387.705 126.401C389.286 127.349 390.661 126.59 390.661 124.694V83.3122Z" fill="white"/>
<path d="M358.162 72.3741C359.036 72.871 359.843 73.4765 360.565 74.1761C361.206 74.8075 361.783 75.5011 362.288 76.2467C362.728 76.9057 363.084 77.6173 363.347 78.3648C363.569 78.998 363.713 79.6563 363.774 80.3248C363.774 81.0045 363.853 81.7158 363.853 82.4587C363.853 83.2016 363.853 83.8812 363.774 84.5135C363.737 85.0282 363.592 85.5294 363.347 85.9835C363.117 86.4011 362.739 86.7171 362.288 86.8687C361.731 87.0502 361.136 87.0775 360.565 86.9477C359.712 86.7507 358.899 86.4086 358.162 85.9361C357.281 85.4498 356.468 84.8492 355.744 84.15C355.096 83.5402 354.523 82.8558 354.037 82.1109C353.59 81.4555 353.234 80.7431 352.978 79.9928C352.758 79.3579 352.61 78.7006 352.535 78.0328C352.535 77.3374 352.535 76.6261 352.535 75.899C352.535 75.1719 352.535 74.4606 352.535 73.8441C352.584 73.3296 352.734 72.83 352.978 72.3741C353.206 71.9525 353.584 71.6313 354.037 71.4731C354.597 71.3333 355.183 71.3333 355.744 71.4731C356.596 71.6316 357.414 71.9365 358.162 72.3741ZM373.273 82.0003C373.439 81.8886 373.628 81.8181 373.827 81.7948C374.116 81.8138 374.395 81.9122 374.633 82.0793L376.893 83.3754C377.149 83.5273 377.374 83.7257 377.557 83.9603C377.703 84.1635 377.785 84.4056 377.794 84.6558C377.8 84.7136 377.8 84.7719 377.794 84.8296C377.762 84.8859 377.725 84.9388 377.683 84.9877L359.063 98.7394C358.898 98.8511 358.708 98.9215 358.51 98.9448C358.22 98.9258 357.941 98.8274 357.704 98.6603L355.444 97.3642C355.182 97.221 354.955 97.0213 354.78 96.7794C354.634 96.5761 354.551 96.3341 354.543 96.0839C354.528 96.0322 354.528 95.9774 354.543 95.9258C354.564 95.8594 354.602 95.7995 354.653 95.7519L373.273 82.0003ZM360.154 82.0003C360.177 81.769 360.177 81.536 360.154 81.3048V79.2658C360.175 79.0239 360.175 78.7805 360.154 78.5386C360.107 77.9824 359.94 77.443 359.664 76.958C359.305 76.3576 358.785 75.8701 358.162 75.5512C357.435 75.1402 356.929 75.0138 356.582 75.2193C356.435 75.3421 356.316 75.4941 356.232 75.6656C356.147 75.837 356.1 76.0242 356.092 76.2151C356.092 76.3415 356.092 76.5786 356.092 76.8948C356.092 77.2109 356.092 77.5428 356.092 77.9064C356.092 78.2699 356.092 78.6019 356.092 78.9338C356.092 79.2657 356.092 79.5186 356.092 79.6767C356.153 80.2299 356.32 80.7663 356.582 81.2574C356.969 81.8586 357.517 82.3403 358.162 82.6483C358.889 83.0751 359.395 83.1858 359.664 82.9961C359.81 82.8833 359.929 82.74 360.014 82.5761C360.099 82.4123 360.146 82.2319 360.154 82.0477V82.0003ZM374.475 94.9774C375.357 95.4744 376.17 96.0856 376.893 96.7952C377.537 97.4138 378.11 98.1031 378.6 98.85C379.043 99.5071 379.399 100.219 379.659 100.968C379.877 101.603 380.026 102.261 380.102 102.928C380.102 103.624 380.102 104.335 380.102 105.078C380.102 105.821 380.102 106.5 380.102 107.117C380.053 107.631 379.902 108.131 379.659 108.587C379.43 109.008 379.053 109.33 378.6 109.488C378.042 109.644 377.451 109.644 376.893 109.488C376.038 109.291 375.221 108.954 374.475 108.492C373.608 107.991 372.801 107.392 372.072 106.706C371.427 106.083 370.85 105.394 370.349 104.651C369.915 103.989 369.56 103.278 369.29 102.533C369.067 101.9 368.924 101.241 368.863 100.573C368.863 99.8932 368.784 99.182 368.784 98.439C368.784 97.6961 368.784 97.0165 368.863 96.3842C368.901 95.8698 369.047 95.3691 369.29 94.9142C369.527 94.5032 369.903 94.1896 370.349 94.029C370.906 93.8497 371.499 93.817 372.072 93.9342C372.93 94.1564 373.743 94.5254 374.475 95.0248V94.9774ZM376.482 104.651C376.495 104.419 376.495 104.187 376.482 103.956V101.964C376.482 101.648 376.482 101.395 376.482 101.237C376.428 100.682 376.261 100.144 375.992 99.6561C375.605 99.0501 375.058 98.5631 374.411 98.2494C373.684 97.8384 373.178 97.7119 372.91 97.9174C372.758 98.0352 372.635 98.1861 372.55 98.3587C372.465 98.5313 372.42 98.7209 372.42 98.9132C372.402 99.1395 372.402 99.3667 372.42 99.5929C372.42 99.909 372.42 100.241 372.42 100.605C372.42 100.968 372.42 101.3 372.42 101.632C372.404 101.879 372.404 102.127 372.42 102.375C372.466 102.931 372.633 103.47 372.91 103.956C373.268 104.556 373.789 105.043 374.411 105.362C375.138 105.773 375.665 105.884 375.992 105.694C376.141 105.574 376.263 105.423 376.347 105.251C376.432 105.079 376.478 104.89 376.482 104.698V104.651Z" fill="#FAFAFA"/>
<path d="M96.7859 240.634C96.8421 239.607 97.1388 238.606 97.6522 237.714C98.1656 236.822 98.8813 236.062 99.7417 235.497L142.546 210.792C144.126 209.843 145.502 210.618 145.502 212.515V253.88C145.448 254.909 145.152 255.91 144.639 256.803C144.125 257.695 143.408 258.454 142.546 259.017L124.621 269.355L118.962 292.227C118.981 292.646 118.833 293.056 118.55 293.365C118.267 293.675 117.872 293.86 117.453 293.879C117.034 293.897 116.624 293.749 116.314 293.466C116.005 293.183 115.82 292.788 115.801 292.369L110.632 277.4L99.6785 283.723C98.0978 284.671 96.7227 283.897 96.7227 282.016L96.7859 240.634Z" fill="#407BFF"/>
<g opacity="0.5">
<path d="M96.7859 240.634C96.8421 239.607 97.1388 238.606 97.6522 237.714C98.1656 236.822 98.8813 236.062 99.7417 235.497L142.546 210.792C144.126 209.843 145.502 210.618 145.502 212.515V253.88C145.448 254.909 145.152 255.91 144.639 256.803C144.125 257.695 143.408 258.454 142.546 259.017L124.621 269.355L118.962 292.227C118.981 292.646 118.833 293.056 118.55 293.365C118.267 293.675 117.872 293.86 117.453 293.879C117.034 293.897 116.624 293.749 116.314 293.466C116.005 293.183 115.82 292.788 115.801 292.369L110.632 277.4L99.6785 283.723C98.0978 284.671 96.7227 283.897 96.7227 282.016L96.7859 240.634Z" fill="white"/>
</g>
<path d="M111.739 237.552C112.594 237.02 113.535 236.641 114.521 236.43C115.182 236.296 115.866 236.329 116.512 236.525C117.032 236.712 117.465 237.083 117.729 237.568C118.012 238.09 118.179 238.667 118.219 239.259C118.283 239.986 118.314 240.777 118.314 241.63C118.314 242.484 118.283 243.306 118.219 244.096C118.15 244.872 117.986 245.636 117.729 246.372C117.426 247.231 117.018 248.049 116.512 248.806C115.94 249.67 115.272 250.465 114.521 251.177C113.681 251.978 112.746 252.673 111.739 253.248C110.873 253.778 109.929 254.167 108.941 254.402C108.287 254.548 107.606 254.52 106.965 254.323C106.446 254.135 106.013 253.764 105.748 253.28C105.46 252.759 105.288 252.182 105.242 251.588C105.242 250.861 105.242 250.008 105.242 249.217C105.242 248.427 105.242 247.542 105.242 246.752C105.318 245.975 105.488 245.211 105.748 244.475C106.044 243.614 106.454 242.795 106.965 242.041C107.54 241.18 108.202 240.38 108.941 239.654C109.784 238.842 110.724 238.136 111.739 237.552ZM129.126 228.527C129.305 228.181 129.517 227.853 129.758 227.547C130.024 227.243 130.339 226.987 130.691 226.788L133.315 225.207C133.533 225.046 133.805 224.978 134.073 225.018C134.263 225.018 134.358 225.223 134.358 225.476C134.369 225.56 134.369 225.645 134.358 225.729L134.231 226.061L112.703 266.81C112.524 267.151 112.312 267.474 112.071 267.774C111.808 268.081 111.492 268.338 111.138 268.533L108.53 270.114C108.306 270.274 108.028 270.342 107.755 270.303C107.566 270.303 107.471 270.098 107.471 269.845C107.46 269.761 107.46 269.676 107.471 269.592L107.597 269.26L129.126 228.527ZM114.046 246.119C114.068 245.835 114.068 245.55 114.046 245.266V242.911C114.069 242.642 114.069 242.373 114.046 242.104C114.038 241.883 113.983 241.666 113.885 241.467C113.787 241.268 113.648 241.092 113.477 240.951C113.161 240.729 112.576 240.951 111.739 241.346C111.092 241.671 110.54 242.158 110.136 242.759C109.732 243.359 109.489 244.054 109.431 244.776C109.408 245.065 109.408 245.356 109.431 245.645C109.431 246.024 109.431 246.42 109.431 246.831C109.431 247.242 109.431 247.621 109.431 248C109.406 248.263 109.406 248.528 109.431 248.791C109.431 249.014 109.482 249.234 109.581 249.434C109.68 249.634 109.823 249.809 110 249.944C110.316 250.166 110.885 250.023 111.739 249.549C112.452 249.191 113.053 248.645 113.477 247.969C113.792 247.398 113.986 246.768 114.046 246.119ZM130.596 242.01C131.459 241.477 132.404 241.092 133.394 240.871C134.05 240.738 134.729 240.77 135.369 240.966C135.889 241.154 136.322 241.525 136.586 242.01C136.874 242.531 137.047 243.107 137.092 243.701C137.092 244.428 137.171 245.282 137.171 246.072C137.171 246.862 137.171 247.747 137.092 248.538C137.018 249.314 136.848 250.079 136.586 250.814C136.287 251.679 135.878 252.503 135.369 253.264C134.159 255.091 132.534 256.608 130.627 257.69C129.769 258.223 128.829 258.613 127.845 258.844C127.187 258.997 126.498 258.97 125.854 258.764C125.331 258.582 124.897 258.21 124.637 257.721C124.352 257.2 124.185 256.623 124.147 256.03C124.147 255.319 124.052 254.449 124.052 253.675C124.052 252.9 124.052 251.983 124.147 251.193C124.215 250.422 124.38 249.663 124.637 248.933C124.94 248.069 125.348 247.246 125.854 246.483C126.429 245.618 127.097 244.817 127.845 244.096C128.664 243.266 129.589 242.549 130.596 241.962V242.01ZM132.904 250.513C132.925 250.229 132.925 249.944 132.904 249.66V247.321C132.926 247.052 132.926 246.783 132.904 246.514C132.905 246.291 132.854 246.071 132.755 245.87C132.656 245.67 132.512 245.496 132.335 245.361C132.018 245.139 131.449 245.266 130.596 245.756C129.885 246.118 129.285 246.663 128.857 247.336C128.552 247.9 128.359 248.517 128.288 249.154C128.273 249.438 128.273 249.723 128.288 250.008C128.288 250.403 128.288 250.798 128.288 251.193C128.288 251.588 128.288 251.999 128.288 252.363C128.272 252.626 128.272 252.89 128.288 253.153C128.297 253.375 128.352 253.592 128.45 253.791C128.548 253.989 128.687 254.165 128.857 254.307C129.173 254.528 129.758 254.402 130.596 253.912C131.31 253.555 131.911 253.008 132.335 252.331C132.661 251.76 132.855 251.122 132.904 250.466V250.513Z" fill="#FAFAFA"/>
</svg>
